<svg width="48" height="48" viewBox="0 0 48 48" fill="none" xmlns="http://www.w3.org/2000/svg">
<g clip-path="url(#clip0_10525_85265)">
<rect width="48" height="48" rx="12" fill="#2D5BE3"/>
<path d="M12.9269 37V36.6L13.6469 36.32C14.1802 36.1067 14.5402 35.84 14.7269 35.52C14.9402 35.2 15.0469 34.7733 15.0469 34.24V13.36C15.0469 12.8 14.9402 12.36 14.7269 12.04C14.5402 11.72 14.1802 11.4667 13.6469 11.28L12.9269 11V10.6H24.4069C27.6602 10.6 30.0069 11.2 31.4469 12.4C32.8869 13.5733 33.6069 15.0667 33.6069 16.88C33.6069 18.24 33.0735 19.48 32.0069 20.6C30.9669 21.6933 29.1669 22.4667 26.6069 22.92C29.5402 23.24 31.6869 24.0133 33.0469 25.24C34.4069 26.44 35.0869 27.9067 35.0869 29.64C35.0869 30.4933 34.9002 31.36 34.5269 32.24C34.1535 33.0933 33.5135 33.88 32.6069 34.6C31.7269 35.32 30.5135 35.9067 28.9669 36.36C27.4202 36.7867 25.4602 37 23.0869 37H12.9269ZM20.9669 22.88H22.6869C24.4735 22.88 25.7535 22.4667 26.5269 21.64C27.3269 20.8133 27.7269 19.3733 27.7269 17.32C27.7269 15.1867 27.3669 13.6667 26.6469 12.76C25.9269 11.8533 24.7535 11.4 23.1269 11.4H20.9669V22.88ZM20.9669 36.2H22.9669C24.9669 36.2 26.4469 35.6667 27.4069 34.6C28.3935 33.5333 28.8869 31.8667 28.8869 29.6C28.8869 27.4667 28.4202 25.9467 27.4869 25.04C26.5535 24.1333 25.0202 23.68 22.8869 23.68H20.9669V36.2Z" fill="white"/>
</g>
<defs>
<clipPath id="clip0_10525_85265">
<rect width="48" height="48" rx="12" fill="white"/>
</clipPath>
</defs>
</svg>
